# xmcd
# Track frame offsets:
# 150
# 12728
# 25075
# 40217
# 56437
# 71854
# 85014
# 98691
# 112124
# 125955
#
# Disc length: 1855 seconds
# Revision: 0
# Processed by: cddbd v1.5.1PL2 Copyright (c) Steve Scherf et al.
# Submitted via: VisiTrax 2.10.0.248 - For more info visit www.synapsa.com
#
DISCID=89073d0a
DTITLE=Merle Haggard - I'm Always On A Mountain When I Fall
DYEAR=1978
DGENRE=Country
TTITLE0=I'm Always On A Mountain When I Fall
TTITLE1=It's Been A Great Afternoon
TTITLE2=Love Me When You Can
TTITLE3=There Won't Be Another Now
TTITLE4=Don't You Ever Get Tired (Of Hurting Me)
TTITLE5=Life Of A Rodeo Cowboy
TTITLE6=There Ain't No Good Chain Gang
TTITLE7=The Dream
TTITLE8=The Immigrant
TTITLE9=Mama I've Got To Go To Memphis
EXTD=
EXTT0=
EXTT1=
EXTT2=
EXTT3=
EXTT4=
EXTT5=
EXTT6=
EXTT7=
EXTT8=
EXTT9=
PLAYORDER=
